<?xml version="1.0" encoding="utf-8"?>
<!-- Generator: Adobe Illustrator 23.0.3, SVG Export Plug-In . SVG Version: 6.00 Build 0)  -->
<svg version="1.1" id="レイヤー_1" xmlns="http://www.w3.org/2000/svg" xmlns:xlink="http://www.w3.org/1999/xlink" x="0px"
	 y="0px" viewBox="0 0 23.1 23.1" style="enable-background:new 0 0 23.1 23.1;" xml:space="preserve" preserveAspectRatio="xMinYMid" width="23" height="23">
<style type="text/css">
	.st0{fill:#555555;}
</style>
<g>
	<path class="st0" d="M22.7,20.4l-4.9-4.9c1.2-1.7,1.8-3.6,1.8-5.7c0-2.6-1-5.1-2.9-6.9C14.9,1,12.4,0,9.8,0C7.2,0,4.7,1,2.9,2.9
		C1,4.7,0,7.2,0,9.8c0,2.6,1,5.1,2.9,6.9c1.9,1.9,4.3,2.9,6.9,2.9c2.1,0,4.1-0.6,5.7-1.8l4.9,4.9c0.3,0.3,0.7,0.5,1.1,0.5
		c0.4,0,0.8-0.2,1.1-0.5C23.3,22.1,23.3,21,22.7,20.4L22.7,20.4z M5.1,14.5c-1.3-1.3-1.9-2.9-1.9-4.7c0-1.8,0.7-3.4,1.9-4.7
		C6.4,3.9,8,3.2,9.8,3.2c1.8,0,3.4,0.7,4.7,1.9c1.2,1.2,1.9,2.9,1.9,4.7c0,1.8-0.7,3.4-1.9,4.7c-1.3,1.3-2.9,1.9-4.7,1.9
		C8,16.4,6.4,15.7,5.1,14.5L5.1,14.5z M5.1,14.5"/>
</g>
</svg>
