<?xml version="1.0" encoding="utf-8"?>
<!-- Generator: Adobe Illustrator 23.0.3, SVG Export Plug-In . SVG Version: 6.00 Build 0)  -->
<svg version="1.1" id="レイヤー_1" xmlns="http://www.w3.org/2000/svg" xmlns:xlink="http://www.w3.org/1999/xlink" x="0px"
	 y="0px" viewBox="0 0 37.7 35.1" style="enable-background:new 0 0 37.7 35.1;" xml:space="preserve">
<style type="text/css">
	.st0{fill:#545555;}
</style>
<g>
	<path class="st0" d="M28.8,2.4V0h-2.1v2.4H11V0H8.9v2.4H0v32.7h37.7V2.4H28.8z M35.5,33H2.1V4.5h6.8v2.1H11V4.5h15.7v2.1h2.1V4.5
		h6.8V33z"/>
	<rect x="7.6" y="12.1" class="st0" width="3.8" height="3.8"/>
	<rect x="13.8" y="12.1" class="st0" width="3.8" height="3.8"/>
	<rect x="20.1" y="12.1" class="st0" width="3.8" height="3.8"/>
	<rect x="26.3" y="12.1" class="st0" width="3.8" height="3.8"/>
	<rect x="7.6" y="18.1" class="st0" width="3.8" height="3.8"/>
	<rect x="13.8" y="18.1" class="st0" width="3.8" height="3.8"/>
	<rect x="20.1" y="18.1" class="st0" width="3.8" height="3.8"/>
	<rect x="26.3" y="18.1" class="st0" width="3.8" height="3.8"/>
	<rect x="7.6" y="24" class="st0" width="3.8" height="3.8"/>
	<rect x="13.8" y="24" class="st0" width="3.8" height="3.8"/>
	<rect x="20.1" y="24" class="st0" width="3.8" height="3.8"/>
</g>
</svg>
