<?xml version="1.0" encoding="utf-8"?>
<!-- Generator: Adobe Illustrator 23.0.3, SVG Export Plug-In . SVG Version: 6.00 Build 0)  -->
<svg version="1.1" id="レイヤー_1" xmlns="http://www.w3.org/2000/svg" xmlns:xlink="http://www.w3.org/1999/xlink" x="0px"
	 y="0px" viewBox="0 0 251.6 175.5" style="enable-background:new 0 0 251.6 175.5;" xml:space="preserve" preserveAspectRatio="xMinYMid" width="251" height="175">
<style type="text/css">
	.st0{fill:#FFFFFF;}
	.st1{opacity:0.3;fill:#898989;}
</style>
<path class="st0" d="M249,32.9c-1.6-15.6-16.8-29.6-33.3-30.5c-29.8-1.6-60.1-2.4-90-2.4C96,0,65.7,0.8,35.8,2.4
	C19.4,3.3,4.2,17.3,2.6,32.9c-3.5,36.4-3.5,73.4,0,109.8c1.6,15.6,16.8,29.6,33.3,30.5c29.8,1.6,60.1,2.4,90,2.4
	c29.8,0,60.1-0.8,90-2.4c16.5-0.9,31.7-14.9,33.3-30.5C252.5,106.2,252.5,69.3,249,32.9z"/>
<polygon points="99.4,123 99.4,52.5 166.2,87.5 "/>
<polygon class="st1" points="160.4,90.6 99.4,52.5 166.2,87.5 "/>
</svg>
