<?xml version="1.0" encoding="utf-8"?>
<!-- Generator: Adobe Illustrator 23.0.3, SVG Export Plug-In . SVG Version: 6.00 Build 0)  -->
<svg version="1.1" id="Layer_1" xmlns="http://www.w3.org/2000/svg" xmlns:xlink="http://www.w3.org/1999/xlink" x="0px" y="0px"
	 viewBox="0 0 66 93.8" style="enable-background:new 0 0 66 93.8;" xml:space="preserve">
<style type="text/css">
	.st0{fill:#555555;}
</style>
<g>
	<g>
		<path class="st0" d="M33,0C14.8,0,0,14.8,0,33c0,6.1,1.7,12.1,4.9,17.3l26.2,42.2c0.5,0.8,1.4,1.3,2.3,1.3c0,0,0,0,0,0
			c1,0,1.8-0.5,2.3-1.3l25.5-42.6c3-5.1,4.7-10.9,4.7-16.9C66,14.8,51.2,0,33,0z M56.6,47.1L33.4,85.8L9.6,47.4
			C6.9,43.1,5.5,38.1,5.5,33C5.5,17.8,17.8,5.5,33,5.5S60.5,17.8,60.5,33C60.5,38,59.1,42.8,56.6,47.1z"/>
	</g>
</g>
<g>
	<g>
		<path class="st0" d="M33,16.5c-9.1,0-16.5,7.4-16.5,16.5c0,9,7.3,16.5,16.5,16.5c9.3,0,16.5-7.6,16.5-16.5
			C49.5,23.9,42.1,16.5,33,16.5z M33,44c-6.1,0-11-5-11-11c0-6.1,5-11,11-11s11,5,11,11C44,39,39.2,44,33,44z"/>
	</g>
</g>
</svg>
