<!-- Generator: Adobe Illustrator 20.1.0, SVG Export Plug-In  -->
<svg version="1.1"
     xmlns="http://www.w3.org/2000/svg" xmlns:xlink="http://www.w3.org/1999/xlink" xmlns:a="http://ns.adobe.com/AdobeSVGViewerExtensions/3.0/"
     x="0px" y="0px" width="46.3px" height="44px" viewBox="0 0 46.3 44" style="enable-background:new 0 0 46.3 44;"
     xml:space="preserve">
<style type="text/css">
    .st0{clip-path:url(#SVGID_2_); fill:#555555;}
    .st1{clip-path:url(#SVGID_4_); fill:#555555;}
</style>
<defs>
</defs>
<g>
    <defs>
        <rect id="SVGID_1_" width="46.3" height="44"/>
    </defs>
    <clipPath id="SVGID_2_">
        <use xlink:href="#SVGID_1_"  style="overflow:visible;"/>
    </clipPath>
    <path class="st0" d="M42.2,0H4C1.8,0,0,1.8,0,4v28.6c0,2.2,1.8,4,4,4h12.5V41h-4.8c-0.8,0-1.5,0.7-1.5,1.5c0,0.8,0.7,1.5,1.5,1.5
        h22.9c0.8,0,1.5-0.7,1.5-1.5c0-0.8-0.7-1.5-1.5-1.5h-4.8v-4.3h12.5c2.2,0,4-1.8,4-4V4C46.3,1.8,44.4,0,42.2,0 M26.7,41h-7.2v-4.3
        h7.2V41z M43.2,32.6c0,0.6-0.5,1-1,1H4c-0.6,0-1-0.5-1-1V4c0-0.6,0.5-1,1-1h38.2c0.6,0,1,0.5,1,1V32.6z"/>
    <path class="st0" d="M13.4,18h-3v-7.1h2.9c1.4,0,2.2,0.8,2.2,2c0,0.8-0.5,1.3-0.9,1.5c0.4,0.2,1,0.7,1,1.6
        C15.6,17.2,14.6,18,13.4,18 M13.1,12.1h-1.4v1.6h1.4c0.6,0,0.9-0.3,0.9-0.8C14.1,12.4,13.7,12.1,13.1,12.1 M13.2,15h-1.4v1.7h1.4
        c0.6,0,0.9-0.4,0.9-0.9S13.9,15,13.2,15"/>
    <path class="st0" d="M21.4,17.2c-0.5,0.5-1.1,0.8-1.9,0.8c-0.8,0-1.4-0.3-1.9-0.8c-0.7-0.7-0.7-1.6-0.7-2.8c0-1.2,0-2.1,0.7-2.8
        c0.5-0.5,1.1-0.8,1.9-0.8c0.8,0,1.4,0.3,1.9,0.8c0.7,0.7,0.7,1.6,0.7,2.8C22.1,15.6,22.1,16.5,21.4,17.2 M20.3,12.4
        c-0.2-0.2-0.5-0.4-0.9-0.4c-0.4,0-0.7,0.2-0.9,0.4c-0.3,0.3-0.3,0.6-0.3,2s0.1,1.7,0.3,2c0.2,0.2,0.5,0.4,0.9,0.4
        c0.4,0,0.7-0.1,0.9-0.4c0.3-0.3,0.3-0.6,0.3-2S20.6,12.7,20.3,12.4"/>
    <path class="st0" d="M27.9,17.2C27.4,17.7,26.8,18,26,18c-0.8,0-1.4-0.3-1.9-0.8c-0.7-0.7-0.7-1.6-0.7-2.8c0-1.2,0-2.1,0.7-2.8
        c0.5-0.5,1.1-0.8,1.9-0.8c0.8,0,1.4,0.3,1.9,0.8c0.7,0.7,0.7,1.6,0.7,2.8C28.6,15.6,28.6,16.5,27.9,17.2 M26.9,12.4
        C26.7,12.2,26.4,12,26,12c-0.4,0-0.7,0.2-0.9,0.4c-0.3,0.3-0.3,0.6-0.3,2s0.1,1.7,0.3,2c0.2,0.2,0.5,0.4,0.9,0.4
        c0.4,0,0.7-0.1,0.9-0.4c0.3-0.3,0.3-0.6,0.3-2S27.1,12.7,26.9,12.4"/>
    <polygon class="st0" points="34.2,18 32.4,14.7 31.5,15.8 31.5,18 30.1,18 30.1,10.9 31.5,10.9 31.5,14 34,10.9 35.7,10.9
        33.3,13.7 35.8,18   "/>
    <polygon class="st0" points="16.5,26.3 13.7,21.9 13.7,26.3 12.3,26.3 12.3,19.2 13.5,19.2 16.3,23.5 16.3,19.2 17.7,19.2
        17.7,26.3   "/>
    <path class="st0" d="M23.8,25.6c-0.5,0.5-1.1,0.8-1.9,0.8c-0.8,0-1.4-0.3-1.9-0.8c-0.7-0.7-0.7-1.6-0.7-2.8c0-1.2,0-2.1,0.7-2.8
        c0.5-0.5,1.1-0.8,1.9-0.8c0.8,0,1.4,0.3,1.9,0.8c0.7,0.7,0.7,1.6,0.7,2.8C24.5,23.9,24.5,24.8,23.8,25.6 M22.8,20.7
        c-0.2-0.2-0.5-0.4-0.9-0.4c-0.4,0-0.7,0.2-0.9,0.4c-0.3,0.3-0.3,0.6-0.3,2c0,1.4,0.1,1.7,0.3,2c0.2,0.2,0.5,0.4,0.9,0.4
        c0.4,0,0.7-0.1,0.9-0.4c0.3-0.3,0.4-0.6,0.4-2C23.1,21.3,23,21,22.8,20.7"/>
    <polygon class="st0" points="32.1,26.3 30.9,26.3 29.6,22 28.3,26.3 27.1,26.3 25.2,19.2 26.7,19.2 27.8,23.6 29.1,19.2 30.1,19.2
        31.4,23.6 32.5,19.2 34,19.2     "/>
</g>
</svg>
