<!-- Generator: Adobe Illustrator 20.1.0, SVG Export Plug-In  -->
<svg version="1.1"
     xmlns="http://www.w3.org/2000/svg" xmlns:xlink="http://www.w3.org/1999/xlink" xmlns:a="http://ns.adobe.com/AdobeSVGViewerExtensions/3.0/"
     x="0px" y="0px" width="19.4px" height="20px" viewBox="0 0 19.4 20" style="enable-background:new 0 0 19.4 20;"
     xml:space="preserve">
<style type="text/css">
    .st0{clip-path:url(#SVGID_2_);}
    .st1{clip-path:url(#SVGID_4_);}
</style>
<defs>
</defs>
<g>
    <defs>
        <rect id="SVGID_1_" x="0" y="0" width="19.4" height="20"/>
    </defs>
    <clipPath id="SVGID_2_">
        <use xlink:href="#SVGID_1_"  style="overflow:visible;"/>
    </clipPath>
    <path class="st0" d="M16.8,2.6C15.1,0.9,12.9,0,10.5,0c-0.4,0-0.7,0.3-0.7,0.7s0.3,0.7,0.7,0.7c2,0,3.9,0.8,5.3,2.2S18,6.9,18,8.9
        c0,0.4,0.3,0.7,0.7,0.7c0.4,0,0.7-0.3,0.7-0.7C19.4,6.6,18.5,4.3,16.8,2.6"/>
    <path class="st0" d="M13.9,8.9c0,0.4,0.3,0.7,0.7,0.7c0.4,0,0.7-0.3,0.7-0.7c0-2.7-2.2-4.8-4.8-4.8c-0.4,0-0.7,0.3-0.7,0.7
        c0,0.4,0.3,0.7,0.7,0.7C12.4,5.5,13.9,7.1,13.9,8.9"/>
    <path class="st0" d="M12.3,12.6c-1.1-0.1-1.6,0.7-1.9,1.1c-0.2,0.3-0.1,0.8,0.2,1c0.3,0.2,0.8,0.1,1-0.2c0.3-0.5,0.5-0.5,0.6-0.5
        c0.6,0.1,3,1.8,3.3,2.4c0.1,0.2,0.1,0.3,0,0.5c-0.3,0.8-0.7,1.3-1.2,1.5c-0.5,0.2-1.1,0.2-1.8-0.1c-2.5-1-4.7-2.5-6.6-4.3
        c0,0,0,0,0,0c-1.8-1.8-3.2-4-4.3-6.6C1.4,6.8,1.3,6.2,1.6,5.7c0.2-0.5,0.8-1,1.5-1.2c0.2-0.1,0.4-0.1,0.5,0C4.2,4.7,6,7.1,6,7.7
        C6,7.9,6,8.1,5.5,8.4C5.2,8.6,5.1,9,5.3,9.4c0.2,0.3,0.7,0.4,1,0.2c0.4-0.3,1.2-0.8,1.1-1.9C7.4,6.5,5.2,3.5,4.1,3.1
        C3.7,3,3.2,3,2.7,3.1c-1.1,0.4-2,1.1-2.4,2C-0.1,6-0.1,7,0.3,8c1.1,2.7,2.6,5.1,4.6,7c0,0,0,0,0,0c2,1.9,4.3,3.5,7,4.6
        c0.5,0.2,1.1,0.3,1.6,0.3c0.5,0,0.9-0.1,1.4-0.3c0.9-0.4,1.6-1.2,2-2.4c0.2-0.5,0.2-1,0-1.5C16.5,14.8,13.5,12.6,12.3,12.6"/>
</g>
</svg>
