<?xml version="1.0" encoding="iso-8859-1"?>
<!-- Generator: Adobe Illustrator 23.0.3, SVG Export Plug-In . SVG Version: 6.00 Build 0)  -->
<svg version="1.1" id="&#x30EC;&#x30A4;&#x30E4;&#x30FC;_1"
	 xmlns="http://www.w3.org/2000/svg" xmlns:xlink="http://www.w3.org/1999/xlink" x="0px" y="0px" viewBox="0 0 289.429 40.263"
	 style="enable-background:new 0 0 289.429 40.263;" xml:space="preserve" preserveAspectRatio="xMinYMid" width="289.429" height="40.263">
<g>
	<path style="fill:#008345;" d="M73.347,15.577v0.659c0.973,0,1.467,0.403,1.478,1.206v3.648h-6.697v-3.485
		c-0.012-0.536,0.09-0.895,0.31-1.085c0.219-0.191,0.612-0.284,1.185-0.284v-0.659c-0.755,0.049-1.507,0.074-2.26,0.074
		c-0.758,0-1.507-0.025-2.247-0.074v0.659c0.619,0,1.037,0.121,1.26,0.367c0.17,0.181,0.254,0.502,0.254,0.966
		c0,0.096,0,0.26,0,0.494c0,0.216,0,0.399,0,0.544v7.265c0,0.548-0.108,0.913-0.328,1.093c-0.217,0.186-0.613,0.278-1.186,0.278
		v0.638c1.749-0.071,3.253-0.071,4.507,0v-0.638c-0.573,0-0.963-0.099-1.178-0.297c-0.213-0.195-0.317-0.562-0.317-1.111v-3.943
		h6.697v3.872c0,0.573-0.102,0.959-0.31,1.165c-0.209,0.209-0.597,0.314-1.168,0.314v0.638c1.702-0.084,3.194-0.084,4.471,0v-0.638
		c-0.525,0-0.896-0.079-1.114-0.241c-0.256-0.183-0.382-0.514-0.382-1.003v-8.394c0-0.536,0.106-0.895,0.318-1.085
		c0.214-0.191,0.605-0.284,1.178-0.284v-0.659C76.43,15.715,74.941,15.715,73.347,15.577"/>
	<path style="fill:#008345;" d="M86.171,17.493c-1.48,0-2.743,0.503-3.776,1.501c-1.042,1-1.564,2.238-1.564,3.713
		c0,1.512,0.502,2.766,1.502,3.781c0.996,1.006,2.247,1.514,3.747,1.514c1.499,0,2.759-0.502,3.778-1.501
		c1.021-1.003,1.53-2.248,1.53-3.749c0-1.476-0.5-2.718-1.497-3.736C88.892,18.001,87.65,17.493,86.171,17.493 M89.028,26.012
		c-0.697,0.95-1.641,1.426-2.828,1.426c-1.194,0-2.168-0.523-2.919-1.563c-0.679-0.928-1.02-2.018-1.02-3.265
		c0-1.226,0.341-2.262,1.02-3.111c0.729-0.935,1.689-1.396,2.875-1.396c1.165,0,2.114,0.526,2.841,1.575
		c0.65,0.941,0.978,2.015,0.978,3.224C89.975,24.123,89.656,25.163,89.028,26.012z"/>
	<path style="fill:#008345;" d="M100.103,17.522c-1.238,0.132-2.133,0.199-2.693,0.199c-1.256,0-2.061-0.123-2.417-0.363h-0.245
		c-0.393,1.358-0.617,2.098-0.668,2.218h0.52c0.204-0.501,0.47-0.84,0.793-1.024c0.284-0.149,0.72-0.222,1.299-0.222h1.087v7.802
		c0,0.468-0.09,0.783-0.27,0.96c-0.176,0.172-0.504,0.257-0.981,0.257v0.532c1.449-0.071,2.721-0.071,3.804,0v-0.532
		c-0.509,0-0.854-0.078-1.034-0.236c-0.182-0.159-0.275-0.476-0.275-0.951V18.33h1.817c0.665,0,1,0.198,1,0.599
		c0,0.192-0.019,0.409-0.05,0.647h0.502c0.105-0.668,0.272-1.408,0.519-2.218h-0.046C102.146,17.338,101.259,17.391,100.103,17.522"
		/>
	<path style="fill:#008345;" d="M112.181,27.151c-0.254,0.08-0.99,0.122-2.204,0.122c-0.557,0-0.922-0.138-1.097-0.416
		c-0.119-0.194-0.18-0.61-0.18-1.236v-2.714h1.884c0.469,0,0.792,0.083,0.973,0.251c0.185,0.164,0.287,0.486,0.312,0.947h0.569
		c-0.059-0.734-0.074-1.746-0.043-3.04h-0.526c0,0.469-0.103,0.789-0.295,0.966c-0.191,0.179-0.521,0.269-0.99,0.269H108.7v-3.544
		l0.045-0.306l0.135-0.107c0.243-0.03,0.554-0.045,0.927-0.045c1.028,0,1.647,0.035,1.859,0.105
		c0.466,0.173,0.785,0.659,0.958,1.461l0.532-0.121l-0.213-2.114c-2.709,0.112-4.959,0.112-6.751,0v0.548
		c0.507,0,0.849,0.101,1.032,0.303c0.131,0.164,0.2,0.438,0.2,0.824c0,0.071,0,0.201,0,0.394c0,0.182,0,0.336,0,0.457v6.052
		c0,0.445-0.09,0.744-0.267,0.906c-0.179,0.158-0.501,0.236-0.965,0.236v0.532c2.389-0.08,4.825-0.08,7.298,0l0.516-2.204
		l-0.516-0.156C113.258,26.405,112.823,26.943,112.181,27.151"/>
	<path style="fill:#008345;" d="M123.216,27.137c-0.26,0.088-0.952,0.136-2.068,0.136c-0.484,0-0.803-0.122-0.954-0.37
		c-0.112-0.18-0.168-0.511-0.168-0.995l-0.017-6.589c0-0.469,0.093-0.777,0.276-0.922c0.179-0.147,0.514-0.22,1.003-0.22v-0.548
		c-1.157,0.092-2.404,0.092-3.741,0v0.548c0.506,0,0.85,0.105,1.032,0.319c0.133,0.167,0.198,0.443,0.198,0.837
		c0,0.073,0,0.203,0,0.395c0,0.17,0,0.319,0,0.427v6.007c0,0.456-0.083,0.766-0.258,0.936c-0.172,0.167-0.497,0.251-0.972,0.251
		v0.532c1.611-0.108,3.872-0.108,6.782,0l0.622-2.145l-0.484-0.139C124.194,26.436,123.776,26.943,123.216,27.137"/>
	<path style="fill:#008345;" d="M236.039,15.413c-1.48,0.159-2.563,0.235-3.235,0.235c-1.51,0-2.47-0.142-2.9-0.433h-0.291
		c-0.472,1.631-0.74,2.515-0.799,2.662h0.621c0.241-0.598,0.56-1.006,0.955-1.223c0.339-0.185,0.851-0.275,1.555-0.275h1.302v9.369
		c0,0.554-0.104,0.94-0.322,1.146c-0.215,0.207-0.604,0.311-1.173,0.311v0.639c1.735-0.084,3.256-0.084,4.559,0v-0.639
		c-0.61,0-1.023-0.095-1.241-0.287c-0.217-0.185-0.325-0.563-0.325-1.136v-9.403h2.176c0.8,0,1.195,0.244,1.195,0.724
		c0,0.229-0.019,0.486-0.056,0.774h0.607c0.123-0.802,0.331-1.692,0.62-2.662h-0.055C238.489,15.19,237.428,15.258,236.039,15.413"
		/>
	<path style="fill:#008345;" d="M246.492,17.456c-1.48,0-2.743,0.501-3.78,1.501c-1.037,0.997-1.56,2.238-1.56,3.715
		c0,1.504,0.503,2.765,1.5,3.777c0.994,1.01,2.246,1.516,3.749,1.516c1.499,0,2.757-0.502,3.78-1.502
		c1.022-1.003,1.526-2.247,1.526-3.748c0-1.476-0.495-2.721-1.495-3.736C249.209,17.964,247.968,17.456,246.492,17.456
		 M249.349,25.974c-0.697,0.95-1.641,1.427-2.829,1.427c-1.198,0-2.165-0.523-2.923-1.563c-0.671-0.933-1.015-2.018-1.015-3.265
		c0-1.226,0.344-2.262,1.015-3.111c0.74-0.934,1.692-1.396,2.876-1.396c1.17,0,2.121,0.52,2.845,1.577
		c0.656,0.939,0.978,2.013,0.978,3.22C250.296,24.085,249.983,25.126,249.349,25.974z"/>
	<path style="fill:#008345;" d="M287.929,18.979c-1-1.015-2.24-1.523-3.72-1.523c-1.48,0-2.74,0.501-3.79,1.501
		c-1.03,0.997-1.55,2.238-1.55,3.715c0,1.504,0.5,2.765,1.5,3.777c1,1.01,2.25,1.516,3.75,1.516s2.76-0.502,3.78-1.502
		c1.02-1.003,1.53-2.247,1.53-3.748C289.429,21.239,288.929,19.994,287.929,18.979 M287.069,25.974c-0.7,0.95-1.64,1.427-2.83,1.427
		c-1.2,0-2.17-0.523-2.92-1.563c-0.68-0.933-1.02-2.018-1.02-3.265c0-1.226,0.34-2.262,1.02-3.111c0.74-0.934,1.69-1.396,2.88-1.396
		c1.16,0,2.11,0.52,2.84,1.577c0.65,0.939,0.97,2.013,0.97,3.22C288.009,24.085,287.699,25.126,287.069,25.974z"/>
	<path style="fill:#008345;" d="M263.279,26.123c-0.56-0.588-1.23-1.424-2-2.504c-0.49-0.703-0.98-1.402-1.46-2.102
		c0.63-0.7,1.28-1.404,1.93-2.114c0.86-0.823,1.66-1.241,2.42-1.263v-0.548c-1.16,0.081-2.29,0.081-3.38,0v0.548
		c0.35-0.009,0.6,0.074,0.75,0.257c-0.16,0.418-0.69,1.142-1.61,2.174c-0.65,0.7-1.3,1.404-1.96,2.113v-3.31
		c0-0.479,0.09-0.805,0.28-0.977c0.17-0.173,0.5-0.257,0.98-0.257v-0.548c-1.24,0.081-2.485,0.081-3.728,0v0.548
		c0.512,0,0.86,0.102,1.041,0.302c0.146,0.15,0.217,0.422,0.217,0.808c0,0.083,0,0.221,0,0.41c0,0.179,0,0.334,0,0.458v6.048
		c0,0.461-0.094,0.762-0.275,0.917c-0.183,0.151-0.513,0.229-0.983,0.229v0.532c1.017-0.059,2.258-0.059,3.728,0v-0.532
		c-0.48,0-0.81-0.087-0.98-0.26c-0.19-0.174-0.28-0.496-0.28-0.974v-2.602l0.98-1.047c2.26,3.254,3.58,5.003,3.95,5.245
		c0.17,0.116,0.47,0.17,0.92,0.17h1.38v-0.488C264.699,27.356,264.069,26.943,263.279,26.123"/>
	<path style="fill:#008345;" d="M273.449,17.592v0.488c0.53-0.008,0.79,0.142,0.79,0.453c0,0.43-0.67,1.836-2.03,4.213
		c-1.41-2.43-2.12-3.828-2.12-4.194c0-0.305,0.26-0.462,0.81-0.472v-0.488c-1.23,0.112-2.41,0.112-3.53,0v0.488
		c0.41,0.023,0.75,0.147,0.99,0.379c0.14,0.142,0.34,0.444,0.59,0.902c1.56,2.832,2.34,4.242,2.34,4.235v2.45
		c0,0.529-0.06,0.863-0.2,1.006c-0.15,0.173-0.51,0.26-1.06,0.26v0.532c1.11-0.09,2.36-0.09,3.78,0v-0.532
		c-0.53,0-0.87-0.09-1.03-0.267c-0.16-0.182-0.24-0.526-0.24-1.046c0-1.179,0.01-1.965,0.02-2.359c0-0.165,0.26-0.736,0.81-1.724
		c0.34-0.619,0.68-1.241,1.02-1.855c0.35-0.689,0.62-1.135,0.78-1.327c0.35-0.418,0.79-0.631,1.32-0.654v-0.488
		C275.429,17.693,274.409,17.693,273.449,17.592"/>
	<path style="fill:#008345;" d="M138.334,14.306c0.198,0.239,0.445,0.373,0.743,0.406c0.303,0.032,0.575-0.042,0.817-0.228
		c0.241-0.188,0.382-0.439,0.418-0.755c0.063-0.523-0.18-1.147-0.712-1.876c-0.464-0.628-1.438-1.563-2.328-2.179V7.993h2.662
		c0.334,0,0.613-0.114,0.833-0.348c0.221-0.23,0.331-0.503,0.331-0.808c0-0.329-0.11-0.611-0.331-0.843
		c-0.22-0.229-0.499-0.347-0.833-0.347c-0.606,0-0.987,0.294-1.137,0.876h-1.525V1.372c0-0.719-0.379-1.101-1.099-1.101
		c-0.718,0-1.099,0.382-1.099,1.101v5.151h-4.002c-0.46,0-0.706,0.26-0.706,0.737c0,0.483,0.246,0.733,0.706,0.733h3.764
		c-1.068,4.479-2.779,8.584-5.087,12.207c-0.071,0.097-0.107,0.206-0.107,0.326c0,0.378,0.204,0.582,0.58,0.582
		c0.144,0,0.287-0.058,0.432-0.176c1.731-1.641,3.219-3.796,4.42-6.418v12.327c0,0.718,0.381,1.099,1.099,1.099
		c0.72,0,1.099-0.381,1.099-1.099V11.408c0.355,0.616,0.762,1.331,0.916,1.776c-0.049,0.096-0.082,0.192-0.093,0.291
		C138.058,13.797,138.142,14.073,138.334,14.306"/>
	<path style="fill:#008345;" d="M151.449,15.998c-0.376,0-0.681,0.155-0.898,0.453h-5.762c-0.218-0.298-0.521-0.453-0.899-0.453
		c-0.74,0-1.13,0.378-1.13,1.097V26.9c0,0.738,0.39,1.13,1.13,1.13c0.644,0,1.018-0.322,1.091-0.938h5.377
		c0.072,0.616,0.45,0.938,1.091,0.938c0.738,0,1.13-0.392,1.13-1.13v-9.805C152.579,16.376,152.187,15.998,151.449,15.998
		 M150.321,22.381v3.208h-5.301v-3.208H150.321z M150.321,17.917v2.969h-5.301v-2.969H150.321z"/>
	<path style="fill:#008345;" d="M145.038,13.217h4.755c1.089,1.459,3.315,4.086,6.211,5.573c0.215,0.128,0.442,0.192,0.682,0.192
		c0.369-0.003,0.695-0.15,0.963-0.446c0.235-0.25,0.34-0.541,0.325-0.87c0.195,0.075,0.387,0.146,0.577,0.214
		c0.098,0.037,0.187,0.056,0.271,0.056c0.164,0,0.384-0.075,0.489-0.421c0.111-0.347-0.006-0.587-0.365-0.721
		c-2.158-0.829-4.183-2.034-6.021-3.577h3.625c0.347,0,0.648-0.119,0.902-0.364c0.251-0.238,0.379-0.548,0.379-0.916
		c0-0.328-0.123-0.619-0.362-0.858c-0.24-0.243-0.544-0.363-0.888-0.363c-0.666,0-1.066,0.308-1.189,0.905h-4.166
		c-0.96-1-1.61-1.872-2.012-2.473h4.272c0.346,0,0.64-0.111,0.879-0.328c0.246-0.221,0.37-0.508,0.37-0.864
		c0-0.325-0.12-0.611-0.35-0.84c-0.228-0.231-0.512-0.344-0.841-0.344c-0.605,0-0.99,0.274-1.142,0.816h-4.726
		c0.254-0.816,0.455-1.651,0.608-2.478h6.838c0.332,0,0.611-0.116,0.843-0.344c0.229-0.233,0.35-0.516,0.35-0.846
		c0-0.327-0.121-0.61-0.35-0.842c-0.232-0.229-0.511-0.345-0.843-0.345c-0.6,0-0.985,0.261-1.14,0.782h-5.472
		c0.029-0.257,0.04-0.459,0.052-0.579l0.005-0.095c0.378-0.261,0.58-0.627,0.599-1.086c0.011-0.253-0.043-0.503-0.166-0.754
		c-0.26-0.458-0.653-0.707-1.167-0.73c-0.818-0.035-1.312,0.372-1.476,1.201c-0.012,0.068-0.04,0.258-0.076,0.549
		c-0.048,0.385-0.122,0.908-0.206,1.494h-4.521c-0.521,0-0.794,0.275-0.794,0.798v0.063c0,0.482,0.253,0.734,0.73,0.734h4.341
		c-0.177,1.026-0.338,1.73-0.48,2.094l-0.155,0.384h-3.278c-0.52,0-0.795,0.26-0.795,0.764l0.003,0.025V8.39l-0.003,0.026
		c0,0.481,0.251,0.732,0.73,0.732h2.709l-0.044,0.099c-0.266,0.644-0.552,1.275-0.845,1.876l-0.266,0.498h-1.888
		c-0.495,0-0.759,0.277-0.759,0.799v0.063c0,0.475,0.239,0.734,0.702,0.734h1.1c-1.195,2.019-2.496,3.669-3.878,4.92
		c-0.298,0.272-0.44,0.48-0.449,0.653c-0.008,0.186,0.034,0.331,0.131,0.432c0.095,0.11,0.236,0.165,0.423,0.175h0.026
		c0.085,0,0.183-0.019,0.287-0.056l0.007-0.003c2.051-1,3.475-2.453,5.844-5.991L145.038,13.217 M147.134,9.148h0.333
		c0.278,0.744,0.707,1.596,1.243,2.473h-2.718C146.422,10.827,146.806,9.996,147.134,9.148z"/>
	<path style="fill:#008345;" d="M199.436,15.41c0.251,0.316,0.576,0.48,0.963,0.48h0.066c0.404,0,0.711-0.112,0.915-0.329
		c0.204-0.213,0.303-0.538,0.303-0.953c0-0.628-0.362-1.365-1.083-2.188c-0.568-0.65-1.198-1.218-1.873-1.69
		c-0.117-0.071-0.243-0.105-0.382-0.105c-0.358,0-0.553,0.194-0.553,0.554c0,0.114,0.019,0.219,0.07,0.315
		c0.539,0.977,0.983,1.941,1.323,2.876C199.108,14.754,199.192,15.102,199.436,15.41"/>
	<path style="fill:#008345;" d="M204.808,9.198c-0.306,0-0.577,0.105-0.791,0.315c-0.221,0.212-0.334,0.474-0.334,0.786v7.203
		c-0.145-0.009-0.277,0.031-0.39,0.124c-2.309,1.551-4.364,2.834-6.092,3.823c-0.453,0.257-0.687,0.641-0.687,1.142
		c0,0.777,0.387,1.241,1.142,1.37c0.776,0.128,1.274-0.194,1.499-0.947c1.66-1.314,3.182-2.692,4.528-4.096v8.044
		c0,0.311,0.11,0.575,0.331,0.8c0.217,0.218,0.486,0.33,0.794,0.33c0.311,0,0.576-0.112,0.785-0.332
		c0.209-0.224,0.314-0.489,0.314-0.798V10.299c0-0.309-0.105-0.572-0.317-0.784C205.381,9.304,205.119,9.198,204.808,9.198"/>
	<path style="fill:#008345;" d="M198.449,5.353h5.107v2.099c0,0.309,0.112,0.571,0.333,0.786c0.221,0.206,0.476,0.313,0.763,0.313
		c0.309,0,0.582-0.107,0.798-0.313c0.217-0.215,0.329-0.477,0.329-0.786V5.353h7.837v2.099c0,0.309,0.108,0.571,0.333,0.786
		c0.215,0.206,0.472,0.313,0.76,0.313c0.312,0,0.578-0.107,0.795-0.313c0.223-0.215,0.334-0.477,0.334-0.786V5.353h6.247
		c0.368,0,0.684-0.128,0.944-0.374c0.265-0.251,0.396-0.567,0.396-0.935c0-0.35-0.127-0.657-0.378-0.92
		c-0.25-0.26-0.554-0.391-0.9-0.391c-0.35,0-0.657,0.119-0.904,0.357c-0.195,0.192-0.319,0.412-0.378,0.666h-5.027V1.713
		c0-0.288-0.111-0.543-0.332-0.768c-0.219-0.218-0.482-0.328-0.797-0.328c-0.288,0-0.548,0.11-0.763,0.328
		c-0.222,0.225-0.33,0.48-0.33,0.768v2.043h-7.837V1.713c0-0.288-0.109-0.543-0.327-0.768c-0.218-0.218-0.491-0.328-0.8-0.328
		c-0.287,0-0.545,0.11-0.763,0.328c-0.221,0.225-0.333,0.48-0.333,0.768v2.043h-5.107c-0.536,0-0.817,0.282-0.817,0.799
		C197.632,5.078,197.913,5.353,198.449,5.353"/>
	<path style="fill:#008345;" d="M222.267,14.056c-0.66,0-1.067,0.311-1.19,0.907h-5.217v-4.394c0-0.305-0.108-0.579-0.323-0.811
		c-0.222-0.231-0.5-0.35-0.831-0.35c-0.31,0-0.582,0.119-0.811,0.35c-0.226,0.229-0.347,0.504-0.347,0.811v4.394h-6.274
		c-0.49,0-0.754,0.278-0.754,0.797c0,0.523,0.264,0.803,0.754,0.803h6.274v8.659h-5.27c-0.522,0-0.8,0.273-0.8,0.797
		c0,0.223,0.053,0.409,0.155,0.537c0.123,0.174,0.326,0.259,0.609,0.259h13.578l0.098-0.003v-0.005
		c0.278-0.033,0.523-0.144,0.73-0.334c0.251-0.232,0.381-0.514,0.381-0.844c0-0.329-0.118-0.611-0.348-0.845
		c-0.226-0.23-0.513-0.345-0.838-0.345c-0.603,0-0.985,0.263-1.142,0.783h-4.841v-8.659l6.377-0.008c0.345,0,0.646-0.12,0.9-0.359
		c0.254-0.241,0.381-0.542,0.381-0.888c0-0.35-0.124-0.65-0.36-0.89C222.908,14.178,222.614,14.056,222.267,14.056"/>
	<path style="fill:#008345;" d="M168.365,26.72v-0.455l9.017-3.077l8.982,3.071v0.461c0,0.325,0.117,0.604,0.344,0.83
		c0.226,0.229,0.505,0.34,0.828,0.34c0.32,0,0.601-0.111,0.828-0.34c0.229-0.226,0.344-0.501,0.344-0.83V8.04
		c0.365-0.268,0.609-0.7,0.609-1.187c0-0.816-0.659-1.475-1.476-1.475c-0.731,0-1.34,0.535-1.452,1.241l-0.025,0.248v17.4
		l-7.819-2.676V2.646c0.355-0.274,0.589-0.692,0.589-1.171c0-0.811-0.664-1.475-1.477-1.475c-0.818,0-1.475,0.664-1.475,1.475
		l0.006,0.048v20.099l-7.823,2.67V8.034c0.368-0.266,0.607-0.697,0.607-1.181c0-0.816-0.666-1.475-1.477-1.475
		c-0.817,0-1.473,0.659-1.473,1.475l0.003,0.054V26.72c0,0.325,0.117,0.604,0.344,0.83c0.225,0.229,0.501,0.34,0.826,0.34
		c0.326,0,0.604-0.111,0.828-0.34C168.251,27.324,168.365,27.045,168.365,26.72"/>
	<path style="fill:#008345;" d="M149.49,39.184c-0.38,0.326-0.907,0.497-1.582,0.497c-1.025,0-1.839-0.363-2.442-1.075
		c-0.582-0.674-0.872-1.529-0.872-2.567c0-0.989,0.283-1.811,0.861-2.47c0.595-0.698,1.383-1.051,2.358-1.051
		c1.353,0,2.147,0.604,2.391,1.808l0.392-0.072l-0.19-1.703c-1.149-0.357-2.043-0.535-2.689-0.535c-1.199,0-2.214,0.386-3.028,1.155
		c-0.816,0.774-1.225,1.758-1.225,2.953c0,1.246,0.403,2.239,1.215,2.978c0.783,0.721,1.805,1.08,3.063,1.08
		c0.768,0,1.676-0.207,2.71-0.625l0.276-1.837l-0.418-0.033C150.141,38.356,149.862,38.851,149.49,39.184"/>
	<path style="fill:#008345;" d="M157.491,33.485v0.352c0.526,0,0.786,0.219,0.795,0.65v1.964h-3.607v-1.879
		c-0.005-0.284,0.051-0.479,0.167-0.582c0.119-0.104,0.334-0.153,0.636-0.153v-0.352c-0.402,0.027-0.808,0.039-1.218,0.039
		c-0.404,0-0.806-0.012-1.206-0.039v0.352c0.335,0,0.562,0.066,0.681,0.198c0.089,0.099,0.135,0.271,0.135,0.52
		c0,0.049,0,0.139,0,0.266c0,0.117,0,0.215,0,0.291v3.916c0,0.29-0.057,0.485-0.175,0.586c-0.117,0.101-0.332,0.15-0.641,0.15v0.341
		c0.941-0.041,1.752-0.041,2.424,0v-0.341c-0.302,0-0.517-0.053-0.628-0.158c-0.116-0.108-0.175-0.306-0.175-0.6v-2.12h3.607v2.083
		c0,0.306-0.055,0.513-0.167,0.625c-0.111,0.111-0.322,0.17-0.628,0.17v0.341c0.913-0.045,1.721-0.045,2.402,0v-0.341
		c-0.275,0-0.477-0.043-0.594-0.127c-0.136-0.103-0.208-0.285-0.208-0.544v-4.521c0-0.284,0.059-0.479,0.174-0.582
		c0.111-0.104,0.322-0.153,0.628-0.153v-0.352C159.152,33.556,158.348,33.556,157.491,33.485"/>
	<path style="fill:#008345;" d="M162.702,33.485v0.352c0.339,0,0.568,0.061,0.683,0.188c0.089,0.104,0.133,0.281,0.133,0.53
		c0,0.045,0,0.131,0,0.257c0,0.123,0,0.224,0,0.3v3.916c0,0.29-0.053,0.485-0.171,0.586c-0.116,0.101-0.328,0.15-0.645,0.15v0.341
		c0.785-0.053,1.589-0.053,2.408,0v-0.341c-0.331,0-0.558-0.066-0.678-0.201c-0.094-0.104-0.137-0.283-0.137-0.535
		c0-0.055,0-0.143,0-0.273c0-0.113,0-0.207,0-0.28v-3.903c0-0.293,0.058-0.488,0.173-0.587c0.116-0.102,0.334-0.148,0.642-0.148
		v-0.352C164.251,33.544,163.45,33.544,162.702,33.485"/>
	<path style="fill:#008345;" d="M172.37,33.485v0.339c0.579,0,0.866,0.378,0.858,1.124v3.694l-3.903-5.157
		c-0.502,0.045-1.037,0.045-1.598,0v0.339c0.335,0.022,0.561,0.087,0.666,0.201c0.1,0.112,0.156,0.336,0.156,0.678l-0.039,3.325
		c0,0.065,0.007,0.176,0.019,0.332c0.012,0.154,0.02,0.268,0.02,0.338c0,0.726-0.277,1.094-0.822,1.094v0.313
		c0.797-0.041,1.497-0.041,2.096,0v-0.313c-0.272,0-0.463-0.034-0.567-0.108c-0.207-0.155-0.303-1.3-0.294-3.442v-1.839l4.498,5.852
		l0.186,0.008l0.043-4.393c0-0.083-0.012-0.229-0.034-0.435c-0.016-0.209-0.028-0.367-0.028-0.475c0-0.755,0.279-1.136,0.839-1.136
		v-0.339C173.663,33.544,172.968,33.544,172.37,33.485"/>
	<path style="fill:#008345;" d="M181.156,39.455c-0.239,0.151-0.653,0.23-1.258,0.23h-1.947c2.34-3.467,3.71-5.485,4.108-6.065
		L182,33.516h-0.116c-0.125,0-0.497,0.008-1.116,0.028c-0.63,0.025-1.139,0.037-1.508,0.037c-1.036,0-1.666-0.076-1.894-0.235h-0.11
		l-0.305,1.67l0.305,0.05c0.113-0.474,0.325-0.787,0.636-0.942c0.233-0.12,0.626-0.182,1.161-0.182h1.777
		c-0.198,0.298-0.888,1.297-2.069,3.001c-0.859,1.215-1.534,2.228-2.042,3.032l0.079,0.13c0.859-0.073,1.732-0.109,2.608-0.109
		c0.859,0,1.638,0.036,2.34,0.109c0.152-0.746,0.27-1.307,0.353-1.678l-0.302-0.081C181.638,38.91,181.426,39.28,181.156,39.455"/>
	<path style="fill:#008345;" d="M188.359,36.706c-0.357-1.139-0.708-2.275-1.054-3.408l-0.569,0.255
		c-0.656,1.779-1.15,3.113-1.494,3.999c-0.097,0.294-0.193,0.587-0.286,0.884c-0.139,0.378-0.282,0.672-0.44,0.875
		c-0.207,0.267-0.462,0.422-0.755,0.462v0.332c0.647-0.053,1.311-0.053,2.003,0v-0.332c-0.409-0.027-0.611-0.133-0.611-0.326
		c0-0.175,0.209-0.841,0.62-1.995h2.049c0.397,1.173,0.596,1.835,0.596,1.984c0,0.201-0.205,0.31-0.611,0.337v0.332
		c0.814-0.045,1.568-0.045,2.272,0v-0.332c-0.263-0.04-0.437-0.086-0.523-0.136C189.324,39.482,188.927,38.507,188.359,36.706
		 M185.956,36.994l0.916-2.548l0.806,2.548H185.956z"/>
	<path style="fill:#008345;" d="M196.641,33.485v0.339c0.574,0,0.859,0.378,0.853,1.124v3.694l-3.9-5.157
		c-0.506,0.045-1.039,0.045-1.602,0v0.339c0.343,0.022,0.563,0.087,0.673,0.201c0.104,0.112,0.156,0.336,0.156,0.678l-0.04,3.325
		c0,0.065,0.006,0.176,0.019,0.332c0.012,0.154,0.021,0.268,0.021,0.338c0,0.726-0.278,1.094-0.829,1.094v0.313
		c0.802-0.041,1.501-0.041,2.106,0v-0.313c-0.277,0-0.469-0.034-0.571-0.108c-0.213-0.155-0.313-1.3-0.297-3.442v-1.839l4.501,5.852
		l0.182,0.008l0.042-4.393c0-0.083-0.008-0.229-0.029-0.435c-0.019-0.209-0.027-0.367-0.027-0.475c0-0.755,0.279-1.136,0.836-1.136
		v-0.339C197.932,33.544,197.235,33.544,196.641,33.485"/>
	<path style="fill:#008345;" d="M204.17,36.882c-0.453-0.306-0.905-0.608-1.348-0.917c-0.476-0.345-0.718-0.714-0.718-1.098
		c0-0.32,0.124-0.585,0.367-0.797c0.24-0.218,0.525-0.323,0.853-0.323c0.309,0,0.569,0.114,0.786,0.343
		c0.195,0.202,0.328,0.457,0.4,0.771l0.334-0.068c-0.099-0.399-0.167-0.799-0.205-1.201c-0.452-0.131-0.842-0.195-1.17-0.195
		c-0.575,0-1.049,0.142-1.423,0.427c-0.418,0.325-0.626,0.762-0.626,1.317c0,0.537,0.232,1.005,0.703,1.404
		c0.443,0.31,0.879,0.61,1.319,0.91c0.475,0.356,0.708,0.746,0.708,1.179c0,0.342-0.133,0.629-0.396,0.861
		c-0.269,0.238-0.576,0.356-0.913,0.356c-0.734,0-1.201-0.469-1.404-1.405l-0.369,0.068c0.083,0.599,0.148,1.043,0.193,1.337
		c0.509,0.235,1.015,0.351,1.512,0.351c0.582,0,1.08-0.159,1.473-0.478c0.424-0.348,0.641-0.803,0.641-1.373
		C204.887,37.789,204.643,37.297,204.17,36.882"/>
	<path style="fill:#008345;" d="M210.7,33.397c-0.953,0-1.77,0.322-2.442,0.969c-0.673,0.647-1.009,1.447-1.009,2.399
		c0,0.973,0.322,1.786,0.97,2.442c0.641,0.653,1.45,0.975,2.424,0.975c0.966,0,1.784-0.322,2.439-0.969
		c0.661-0.645,0.988-1.452,0.988-2.42c0-0.954-0.321-1.757-0.971-2.413C212.457,33.722,211.654,33.397,210.7,33.397 M212.548,38.897
		c-0.452,0.613-1.066,0.926-1.826,0.926c-0.776,0-1.402-0.341-1.892-1.014c-0.436-0.602-0.653-1.304-0.653-2.109
		c0-0.791,0.217-1.461,0.653-2.012c0.477-0.598,1.093-0.901,1.861-0.901c0.751,0,1.363,0.342,1.837,1.022
		c0.415,0.609,0.624,1.3,0.624,2.08C213.152,37.682,212.95,38.351,212.548,38.897z"/>
	<path style="fill:#008345;" d="M12.524,11.527c8.871,0,11.521-0.785,11.521-0.785C16.985,7.589,12.524,3.46,12.524,3.46
		s-4.46,4.129-11.52,7.282C1.004,10.742,3.655,11.527,12.524,11.527"/>
	<path style="fill:#008345;" d="M12.524,21.798c9.715,0,12.358-0.804,12.358-0.804c-3.729-0.861-6.422-1.979-6.422-1.979H6.589
		c0,0-2.69,1.118-6.422,1.979C0.167,20.994,2.81,21.798,12.524,21.798"/>
	<path style="fill:#008345;" d="M12.505,32.096c10.445,0,12.545-0.808,12.545-0.808c-2.993-0.569-5.93-1.728-5.93-1.728H5.93
		c0,0-2.938,1.159-5.93,1.728c0,0,2.099,0.808,12.542,0.808H12.505"/>
</g>
</svg>
