<?xml version="1.0" encoding="utf-8"?>
<!-- Generator: Adobe Illustrator 23.0.3, SVG Export Plug-In . SVG Version: 6.00 Build 0)  -->
<svg version="1.1" id="Layer_1" xmlns="http://www.w3.org/2000/svg" xmlns:xlink="http://www.w3.org/1999/xlink" x="0px" y="0px"
	 viewBox="0 0 101.4 85.1" style="enable-background:new 0 0 101.4 85.1;" xml:space="preserve">
<style type="text/css">
	.st0{fill:#555555;}
</style>
<path class="st0" d="M48.4,85.1c-0.3,0-0.6,0-0.9,0c-4.9-0.3-9.3-2.1-12.6-3.7c-8.5-4.1-16-10-22.2-17.4C7.6,57.9,4.2,52.1,1.9,45.9
	c-1-2.6-2.2-6.5-1.8-10.7c0.2-2.7,1.3-5,3.2-6.9l4.8-4.8c1.6-1.5,3.4-2.3,5.2-2.3c1.9,0,3.6,0.8,5.1,2.2c0.9,0.8,1.8,1.8,2.6,2.6
	c0.4,0.4,0.9,0.9,1.3,1.3l3.9,3.9c3.2,3.2,3.2,7.4,0,10.6l-1.5,1.5c-0.8,0.9-1.7,1.7-2.6,2.6c0.8,1.7,1.9,3.4,3.5,5.5
	c3.6,4.4,7.3,7.8,11.4,10.4c0.4,0.2,0.8,0.5,1.3,0.7c0,0,0.6,0.3,0.7,0.4l4.1-4.1c1.5-1.5,3.3-2.3,5.2-2.3s3.7,0.8,5.2,2.4l7.7,7.7
	c1.5,1.5,2.3,3.3,2.3,5.2s-0.8,3.7-2.3,5.3c-0.6,0.6-1.2,1.2-1.8,1.8l-0.2,0.2c-0.8,0.8-1.5,1.5-2.2,2.2l0,0l-0.1,0.1
	C54.7,83.9,51.9,85.1,48.4,85.1z M13.4,26.3c-0.5,0-1.1,0.3-1.7,0.8l-4.8,4.8c-1.1,1.1-1.6,2.3-1.8,3.8c-0.2,2.5,0.3,5.1,1.5,8.5
	c2.1,5.7,5.3,10.9,10,16.6c5.7,6.8,12.6,12.2,20.5,16.1c2.9,1.4,6.6,3,10.7,3.2c0.2,0,0.4,0,0.6,0l0,0c2,0,3.5-0.6,4.8-2
	c0.9-1,1.8-2,2.7-2.8l0.3-0.3c0.4-0.4,0.8-0.8,1.2-1.2v-0.4h0.3c1-1.2,1-2.2-0.2-3.3l-7.7-7.7c-0.3-0.4-0.9-0.9-1.6-0.9
	c-0.7,0-1.3,0.5-1.7,0.9l-4.8,4.8c-0.3,0.3-1.2,1.1-2.6,1.1c-0.6,0-1.1-0.1-1.7-0.4c0,0-2.7-1.4-3.3-1.8c-4.6-2.9-8.7-6.6-12.6-11.5
	c-2.2-2.8-3.6-5.1-4.6-7.6l-0.1-0.2c-0.3-0.9-0.5-2.3,0.8-3.7l0,0l0.1-0.1c1.2-1.1,2.3-2.1,3.5-3.4c0.3-0.3,0.5-0.5,0.8-0.8l0.4-0.4
	c1.3-1.3,1.3-2.2,0-3.5l-3.8-3.8l-1.3-1.4c-0.9-0.9-1.7-1.7-2.5-2.5C14.6,26.7,14,26.3,13.4,26.3z"/>
<path class="st0" d="M95.2,0H40.3C36.8,0,34,2.8,34,6.2v34.3c0,3.4,2.8,6.2,6.2,6.2h54.9c3.4,0,6.2-2.8,6.2-6.2V6.2
	C101.4,2.8,98.6,0,95.2,0z M95,3.5L69.5,26.4c-1,0.9-2.6,0.9-3.6,0L40.4,3.5H95z M97.9,40.5c0,1.5-1.2,2.7-2.7,2.7H40.3
	c-1.5,0-2.7-1.2-2.7-2.7V6.2c0-0.2,0-0.3,0-0.5L63.6,29c1.2,1.1,2.7,1.6,4.2,1.6c1.5,0,3-0.5,4.2-1.6L97.8,5.8c0,0.2,0,0.3,0,0.5
	V40.5z"/>
</svg>
