<!-- Generator: Adobe Illustrator 20.1.0, SVG Export Plug-In  -->
<svg version="1.1"
     xmlns="http://www.w3.org/2000/svg" xmlns:xlink="http://www.w3.org/1999/xlink" xmlns:a="http://ns.adobe.com/AdobeSVGViewerExtensions/3.0/"
     x="0px" y="0px" width="70px" height="63.6px" viewBox="0 0 70 63.6" style="enable-background:new 0 0 70 63.6;"
     xml:space="preserve">
<style type="text/css">
    .st0{clip-path:url(#SVGID_2_); fill:#555555;}
    .st1{clip-path:url(#SVGID_4_); fill:#555555;}
</style>
<defs>
</defs>
<g>
    <defs>
        <rect id="SVGID_1_" x="0" width="70" height="63.6"/>
    </defs>
    <clipPath id="SVGID_2_">
        <use xlink:href="#SVGID_1_"  style="overflow:visible;"/>
    </clipPath>
    <path class="st0" d="M67.2,15.8c-1.8-3.6-4.4-6.7-7.8-9.2C53.4,2.3,45,0,35,0S16.6,2.3,10.6,6.6c-3.4,2.4-6,5.5-7.8,9.2
        C0.9,19.6,0,24,0,29c0,10.7,4.4,18.9,12.8,23.8c-1.2,4.1-2.7,6.6-2.7,6.6l-2.6,4.2l4.9,0h0c0,0,0,0,0,0c1.6,0,8.7-0.3,14.5-6.1
        c2.6,0.4,5.2,0.5,8,0.5c10,0,18.4-2.3,24.4-6.6c3.4-2.4,6-5.5,7.8-9.2C69.1,38.4,70,33.9,70,29C70,24,69.1,19.6,67.2,15.8
         M56.2,46.9c-5,3.6-12.4,5.6-21.2,5.6c-3,0-5.9-0.2-8.6-0.7l-1.5-0.3l-1,1.2c-2.2,2.5-4.7,3.9-6.8,4.6c0.6-1.5,1.1-3.3,1.6-5.3
        l0.5-2.1L17.2,49C9.4,45.1,5.5,38.4,5.5,29c0-7.9,2.8-14,8.3-17.9c5-3.6,12.4-5.6,21.2-5.6c8.8,0,16.2,1.9,21.2,5.6
        c5.5,4,8.3,10,8.3,17.9C64.5,36.9,61.7,42.9,56.2,46.9"/>
    <path class="st0" d="M44.3,22.1c0,4.3-3,7.9-7,9v3.8c0,1.3-1,2.3-2.3,2.3c-1.3,0-2.3-1-2.3-2.3V29c0-1.3,1-2.3,2.3-2.3
        c2.6,0,4.6-2.1,4.6-4.6c0-2.6-2.1-4.6-4.6-4.6c-2.6,0-4.6,2.1-4.6,4.6c0,1.3-1,2.3-2.3,2.3c-1.3,0-2.3-1-2.3-2.3
        c0-5.1,4.2-9.3,9.3-9.3C40.2,12.8,44.3,16.9,44.3,22.1"/>
    <path class="st0" d="M38,41.7c0,1.6-1.3,2.9-2.9,2.9c-1.6,0-2.9-1.3-2.9-2.9s1.3-2.9,2.9-2.9C36.7,38.8,38,40.1,38,41.7"/>
</g>
</svg>
