<?xml version="1.0" encoding="utf-8"?>
<!-- Generator: Adobe Illustrator 23.0.3, SVG Export Plug-In . SVG Version: 6.00 Build 0)  -->
<svg version="1.1" id="Layer_1" xmlns="http://www.w3.org/2000/svg" xmlns:xlink="http://www.w3.org/1999/xlink" x="0px" y="0px"
	 viewBox="0 0 95.3 95.3" style="enable-background:new 0 0 95.3 95.3;" xml:space="preserve">
<style type="text/css">
	.st0{fill:#555555;}
</style>
<path class="st0" d="M47.6,95.3c-0.2,0-0.4,0-0.6,0c-12.5-0.2-24.3-5.1-33.1-13.9C5,72.3,0,60.4,0,47.7C0,34.9,5,23,13.9,14
	C22.8,5.2,34.5,0.2,47,0c0.2,0,0.4,0,0.6,0c0.2,0,0.4,0,0.6,0C60.7,0.2,72.5,5.2,81.3,14c9,9,13.9,21,13.9,33.7
	c0,12.7-5,24.7-13.9,33.7c-8.8,8.8-20.6,13.8-33,13.9C48,95.3,47.8,95.3,47.6,95.3z M49.9,90l0.9-0.6c2.9-1.9,6.1-5.5,8.8-9.7
	c1.2-2,2.3-4.1,3.3-6.3l0.3-0.8H49.9V90z M32.4,73.4c1,2.2,2.1,4.3,3.3,6.3c2.6,4.3,5.8,7.8,8.8,9.7l0.9,0.6V72.6H32.1L32.4,73.4z
	 M68,73c-1.3,3.3-2.8,6.3-4.5,9.1c-1.3,2.2-2.8,4.2-4.3,5.9l-1.3,1.5l1.9-0.5c6.9-2,13.2-5.8,18.3-10.9c1.4-1.4,2.7-2.9,4-4.5
	l0.7-0.9H68.1L68,73z M13.2,73.5c1.2,1.6,2.5,3.1,4,4.5C22.3,83.2,28.7,87,35.5,89l1.9,0.5l-1.3-1.5c-1.5-1.8-3-3.8-4.3-5.9
	c-1.7-2.8-3.2-5.9-4.5-9.1l-0.1-0.4H12.6L13.2,73.5z M72.5,50.5c-0.2,5.8-1.1,11.4-2.6,16.8L69.7,68h15.9l0.2-0.3
	c2.8-5.3,4.5-11.1,4.9-17.2l0-0.6h-18L72.5,50.5z M49.9,68h15l0.1-0.4c1.7-5.4,2.7-11.2,2.9-17.1l0-0.6h-18V68z M27.3,50.5
	c0.2,5.9,1.2,11.7,2.9,17.1l0.1,0.4h15V50h-18L27.3,50.5z M4.7,50.6c0.4,6.1,2,11.8,4.9,17.2L9.7,68h15.9l-0.2-0.7
	c-1.5-5.4-2.4-11-2.6-16.8l0-0.5h-18L4.7,50.6z M69.9,28c1.5,5.4,2.4,11,2.6,16.8l0,0.5h18l0-0.6c-0.4-6.1-2-11.8-4.9-17.2l-0.2-0.3
	H69.7L69.9,28z M49.9,45.4h18l0-0.6c-0.2-5.9-1.2-11.7-2.9-17.1l-0.1-0.4h-15V45.4z M30.2,27.7c-1.7,5.4-2.7,11.2-2.9,17.1l0,0.6h18
	V27.3h-15L30.2,27.7z M9.5,27.6c-2.8,5.3-4.5,11.1-4.9,17.2l0,0.6h18l0-0.5c0.2-5.8,1.1-11.4,2.6-16.8l0.2-0.7H9.7L9.5,27.6z
	 M59.1,7.3c1.5,1.8,3,3.8,4.3,5.9c1.7,2.8,3.2,5.9,4.5,9.1l0.1,0.4h14.6L82,21.8c-1.2-1.6-2.5-3.1-4-4.5
	c-5.1-5.1-11.5-8.9-18.3-10.9l-1.9-0.5L59.1,7.3z M49.9,22.7h13.3l-0.3-0.8c-1-2.2-2.1-4.3-3.3-6.3c-2.6-4.3-5.8-7.8-8.8-9.7
	l-0.9-0.6V22.7z M44.5,5.9c-2.9,1.9-6.1,5.5-8.8,9.7c-1.2,1.9-2.3,4.1-3.3,6.3l-0.3,0.8h13.3V5.3L44.5,5.9z M35.5,6.3
	c-6.9,2-13.2,5.8-18.3,10.9c-1.4,1.4-2.7,2.9-4,4.5l-0.7,0.9h14.6l0.1-0.4c1.3-3.3,2.8-6.3,4.5-9.1c1.3-2.2,2.8-4.2,4.3-5.9l1.3-1.5
	L35.5,6.3z"/>
</svg>
